<?xml version="1.0" encoding="UTF-8" standalone="no"?>
<svg
   xmlns:dc="http://purl.org/dc/elements/1.1/"
   xmlns:cc="http://creativecommons.org/ns#"
   xmlns:rdf="http://www.w3.org/1999/02/22-rdf-syntax-ns#"
   xmlns:svg="http://www.w3.org/2000/svg"
   xmlns="http://www.w3.org/2000/svg"
   xmlns:sodipodi="http://sodipodi.sourceforge.net/DTD/sodipodi-0.dtd"
   xmlns:inkscape="http://www.inkscape.org/namespaces/inkscape"
   width="240"
   height="240"
   viewBox="0 0 240 240"
   version="1.1"
   id="svg4"
   sodipodi:docname="gear.svg"
   inkscape:version="1.0.1 (3bc2e813f5, 2020-09-07)">
  <metadata
     id="metadata10">
    <rdf:RDF>
      <cc:Work
         rdf:about="">
        <dc:format>image/svg+xml</dc:format>
        <dc:type
           rdf:resource="http://purl.org/dc/dcmitype/StillImage" />
        <dc:title></dc:title>
      </cc:Work>
    </rdf:RDF>
  </metadata>
  <defs
     id="defs8" />
  <sodipodi:namedview
     pagecolor="#ffffff"
     bordercolor="#666666"
     borderopacity="1"
     objecttolerance="10"
     gridtolerance="10"
     guidetolerance="10"
     inkscape:pageopacity="0"
     inkscape:pageshadow="2"
     inkscape:window-width="1360"
     inkscape:window-height="768"
     id="namedview6"
     showgrid="false"
     fit-margin-top="0"
     fit-margin-left="0"
     fit-margin-right="0"
     fit-margin-bottom="0"
     inkscape:zoom="0.91334626"
     inkscape:cx="69.071226"
     inkscape:cy="70.091658"
     inkscape:window-x="0"
     inkscape:window-y="0"
     inkscape:window-maximized="0"
     inkscape:current-layer="svg4" />
  <path
     d="M 240,141.87 V 98.13 C 218.52,90.47 212.74,90.11 209.73,82.84 206.7,75.55 210.56,71.15 220.32,50.61 L 189.39,19.68 C 169.13,29.31 164.51,33.32 157.15,30.27 149.88,27.25 149.47,21.38 141.88,0 H 98.13 c -7.64,21.44 -8,27.25 -15.29,30.27 -7.52,3.13 -12.03,-1 -32.23,-10.59 L 19.68,50.61 C 29.45,71.16 33.3,75.54 30.27,82.85 27.25,90.12 21.46,90.49 0,98.13 v 43.75 c 21.39,7.6 27.25,8 30.27,15.28 3.04,7.34 -0.81,11.67 -10.59,32.23 l 30.93,30.93 c 19.99,-9.5 24.7,-13.73 32.23,-10.59 7.28,3.02 7.64,8.8 15.29,30.27 h 43.74 c 7.58,-21.31 7.99,-27.23 15.37,-30.31 7.45,-3.08 11.86,0.99 32.15,10.62 l 30.93,-30.93 c -9.75,-20.5 -13.62,-24.92 -10.59,-32.23 3,-7.26 8.8,-7.63 30.27,-15.28 z m -48.75,7.64 c -5.77,13.94 -0.68,24.58 4.88,35.78 l -10.84,10.84 c -10.93,-5.43 -21.61,-10.76 -35.73,-4.9 -13.96,5.81 -17.9,16.93 -21.88,28.77 h -15.34 c -3.98,-11.85 -7.91,-22.97 -21.83,-28.75 -14.19,-5.88 -25.07,-0.45 -35.79,4.88 L 43.89,185.29 c 5.57,-11.18 10.66,-21.8 4.87,-35.8 C 42.97,135.58 31.85,131.65 20,127.67 V 112.34 C 31.85,108.36 42.97,104.43 48.75,90.5 54.53,76.56 49.43,65.91 43.87,54.71 L 54.71,43.87 c 10.82,5.38 21.62,10.77 35.8,4.88 13.92,-5.77 17.85,-16.9 21.83,-28.75 h 15.34 c 3.98,11.85 7.92,22.97 21.84,28.75 14.19,5.88 25.06,0.45 35.79,-4.88 l 10.84,10.84 c -5.56,11.21 -10.65,21.87 -4.88,35.8 5.77,13.91 16.89,17.84 28.75,21.83 v 15.34 c -11.88,3.98 -23.02,7.91 -28.77,21.83 z M 120,90 c 16.54,0 30,13.46 30,30 0,16.54 -13.46,30 -30,30 -16.54,0 -30,-13.46 -30,-30 0,-16.54 13.46,-30 30,-30 z m 0,-20 c -27.62,0 -50,22.38 -50,50 0,27.62 22.38,50 50,50 27.62,0 50,-22.38 50,-50 0,-27.62 -22.38,-50 -50,-50 z"
     id="path2"
     style="stroke-width:1;fill:#ffffff;fill-opacity:1" />
</svg>
