<?xml version="1.0" encoding="UTF-8" standalone="no"?>
<svg
   xmlns:dc="http://purl.org/dc/elements/1.1/"
   xmlns:cc="http://creativecommons.org/ns#"
   xmlns:rdf="http://www.w3.org/1999/02/22-rdf-syntax-ns#"
   xmlns:svg="http://www.w3.org/2000/svg"
   xmlns="http://www.w3.org/2000/svg"
   xmlns:sodipodi="http://sodipodi.sourceforge.net/DTD/sodipodi-0.dtd"
   xmlns:inkscape="http://www.inkscape.org/namespaces/inkscape"
   width="240"
   height="240"
   viewBox="0 0 240 240"
   version="1.1"
   id="svg4"
   sodipodi:docname="gear_dark.svg"
   inkscape:version="1.0.1 (3bc2e813f5, 2020-09-07)">
  <metadata
     id="metadata10">
    <rdf:RDF>
      <cc:Work
         rdf:about="">
        <dc:format>image/svg+xml</dc:format>
        <dc:type
           rdf:resource="http://purl.org/dc/dcmitype/StillImage" />
        <dc:title></dc:title>
      </cc:Work>
    </rdf:RDF>
  </metadata>
  <defs
     id="defs8" />
  <sodipodi:namedview
     pagecolor="#ffffff"
     bordercolor="#666666"
     borderopacity="1"
     objecttolerance="10"
     gridtolerance="10"
     guidetolerance="10"
     inkscape:pageopacity="0"
     inkscape:pageshadow="2"
     inkscape:window-width="1360"
     inkscape:window-height="768"
     id="namedview6"
     showgrid="false"
     fit-margin-top="0"
     fit-margin-left="0"
     fit-margin-right="0"
     fit-margin-bottom="0"
     inkscape:zoom="3.653385"
     inkscape:cx="125.00731"
     inkscape:cy="88.896017"
     inkscape:window-x="0"
     inkscape:window-y="0"
     inkscape:window-maximized="0"
     inkscape:current-layer="svg4" />
  <path
     d="M 240,136.16 V 103.84 C 223.49,97.97 213.06,96.32 207.81,83.65 v -0.01 c -5.27,-12.71 1,-21.34 8.47,-37.07 L 193.43,23.72 c -15.61,7.42 -24.33,13.75 -37.07,8.47 h -0.01 C 143.66,26.93 142,16.43 136.16,0 H 103.84 C 98.02,16.35 96.35,26.92 83.65,32.19 H 83.64 C 70.93,37.47 62.32,31.21 46.57,23.72 L 23.72,46.57 C 31.17,62.25 37.47,70.91 32.19,83.64 26.92,96.35 16.35,98.02 0,103.84 v 32.32 c 16.32,5.8 26.92,7.49 32.19,20.19 5.3,12.82 -1.14,21.66 -8.47,37.07 l 22.85,22.86 c 15.62,-7.43 24.34,-13.75 37.07,-8.47 h 0.01 c 12.7,5.26 14.36,15.79 20.19,32.19 h 32.32 c 5.82,-16.36 7.5,-26.9 20.27,-32.22 h 0.01 c 12.62,-5.24 21.2,1.01 36.98,8.51 l 22.85,-22.86 c -7.44,-15.63 -13.75,-24.33 -8.48,-37.06 5.27,-12.71 15.88,-14.4 32.21,-20.21 z M 120,160 c -22.09,0 -40,-17.91 -40,-40 0,-22.09 17.91,-40 40,-40 22.09,0 40,17.91 40,40 0,22.09 -17.91,40 -40,40 z"
     id="path2"
     style="stroke-width:1" />
</svg>
